<svg xmlns="http://www.w3.org/2000/svg" width="32" height="32" viewBox="0 0 8.467 8.467" id="cart"><path fill="#00ffd0" fill-opacity=".992" d="M3.05 5.065h4.21l.649-2.742H2.454"></path><path fill="none" stroke="#025" stroke-linecap="round" stroke-linejoin="round" stroke-width=".397" d="M3.05 5.065h4.21l.649-2.742H2.454"></path><path fill="none" stroke="#025" stroke-linecap="round" stroke-linejoin="round" stroke-width=".344" d="M6.995 6.488a.405.405 0 0 1-.405.405.405.405 0 0 1-.405-.405.405.405 0 0 1 .405-.405.405.405 0 0 1 .405.405zm-3.092 0a.405.405 0 0 1-.405.405.405.405 0 0 1-.404-.405.405.405 0 0 1 .404-.405.405.405 0 0 1 .405.405z"></path><path fill="none" stroke="#025" stroke-linecap="round" stroke-linejoin="round" stroke-width=".397" d="M.561 1.602 1.646 1.6l.91 4.035h4.57"></path></svg>