<svg xmlns="http://www.w3.org/2000/svg" fill-rule="evenodd" stroke-linejoin="round" stroke-miterlimit="2" clip-rule="evenodd" viewBox="0 0 32 32" id="ecommerce"><g transform="translate(-240 -336)"><path fill="#e9e9e9" d="M222,346l-28.002,0c-1.285,4.43 -1.505,8.844 -0.666,13.241c0.321,1.575 2.285,2.747 4.605,2.747c5.332,0.012 14.79,0.012 20.123,0.012c2.328,0 4.301,-1.177 4.622,-2.758c0.826,-4.419 0.605,-8.832 -0.682,-13.242Z" transform="matrix(.85715 0 0 1.2499 77.712 -86.464)"></path><path fill="#e9e9e9" d="M268,339.669c-0,-0.442 -0.211,-0.866 -0.586,-1.179c-0.375,-0.312 -0.884,-0.488 -1.414,-0.488c-4.519,-0 -15.476,-0 -19.995,-0c-0.53,-0 -1.039,0.176 -1.414,0.488c-0.375,0.313 -0.586,0.737 -0.586,1.179c0,1.453 0,3.331 0,3.331l23.995,0l-0,-3.331" transform="matrix(1 0 0 1.19981 0 -67.536)"></path><path fill="#d3d3d3" d="M195.004,352.633c0.024,1.975 0.165,3.948 0.423,5.919c0.275,1.968 1.959,3.434 3.947,3.434c4.57,0.014 12.678,0.014 17.249,0.014c1.996,0 3.686,-1.471 3.962,-3.448c0.252,-1.968 0.39,-3.936 0.414,-5.903c-0.957,1.155 -2.428,1.883 -4.056,1.883c-4.741,-0 -13.152,-0 -17.89,-0.014c-1.626,-0 -3.096,-0.729 -4.049,-1.885Z" transform="translate(48.004 4)"></path><path fill="#c2c2c2" d="M195.079,354.825c0.069,1.244 0.186,2.486 0.348,3.727c0.275,1.968 1.959,3.434 3.947,3.434c4.57,0.014 12.678,0.014 17.249,0.014c1.996,0 3.686,-1.471 3.962,-3.448c0.159,-1.238 0.272,-2.476 0.34,-3.713c-0.957,1.105 -2.395,1.797 -3.982,1.796c-4.741,0 -13.152,0 -17.89,-0.014c-1.584,-0 -3.02,-0.692 -3.974,-1.796Z" transform="translate(48.077 4)"></path><path fill="#02bfe8" d="M223.144,345.843c-0.109,-0.374 -0.588,-0.643 -1.144,-0.643l-28.002,-0c-0.557,-0 -1.036,0.27 -1.144,0.644c-1.311,4.517 -1.535,9.017 -0.679,13.501c0,0.002 0.001,0.004 0.001,0.007c0.402,1.97 2.859,3.436 5.761,3.436c5.329,0.012 14.789,0.012 20.123,0.012c2.91,0 5.376,-1.471 5.778,-3.448c0,-0.003 0.001,-0.006 0.002,-0.009c0.841,-4.505 0.616,-9.004 -0.696,-13.5Zm-2.108,0.957c1.1,4.108 1.258,8.219 0.49,12.334c-0.243,1.185 -1.721,2.066 -3.466,2.066c-0,-0 -0,-0 -0,-0c-5.332,-0 -14.789,-0 -20.12,-0.012c-0.001,0 -0.002,0 -0.003,0c-1.736,0 -3.207,-0.876 -3.449,-2.055c-0.781,-4.096 -0.624,-8.207 0.475,-12.333c0,0 26.073,0 26.073,0l0,0Z" transform="matrix(.85715 0 0 1.2499 77.712 -86.464)"></path><path fill="#06aed2" d="M194.018,350.666c0.289,1.198 1.019,2.218 2.007,2.907c0.051,1.616 0.182,3.231 0.393,4.843c0.207,1.474 1.468,2.57 2.956,2.57c0.001,-0 0.002,-0 0.003,-0c4.57,0.014 12.676,0.014 17.246,0.014c-0,0 -0,0 -0,0c1.495,0 2.762,-1.101 2.971,-2.582c0.206,-1.611 0.334,-3.221 0.384,-4.831c0.983,-0.684 1.711,-1.694 2.007,-2.882c0.069,2.657 -0.067,5.315 -0.408,7.974c-0.001,0.004 -0.001,0.008 -0.002,0.011c-0.344,2.471 -2.458,4.31 -4.952,4.31c-4.572,0 -12.681,-0 -17.249,-0.014c-2.487,-0 -4.593,-1.833 -4.937,-4.296c-0.001,-0.003 -0.001,-0.006 -0.002,-0.009c-0.349,-2.666 -0.488,-5.338 -0.417,-8.015Z" transform="translate(48 4)"></path><path fill="#02a5c8" d="M194.005,352.714c0.29,1.269 1.074,2.343 2.137,3.042c0.068,0.887 0.16,1.774 0.276,2.66c0.207,1.474 1.468,2.57 2.956,2.57c0.001,-0 0.002,-0 0.003,-0c4.57,0.014 12.676,0.014 17.246,0.014c-0,0 -0,0 -0,0c1.495,0 2.762,-1.101 2.971,-2.582c0.113,-0.884 0.203,-1.767 0.269,-2.65c1.055,-0.693 1.836,-1.755 2.135,-3.011c-0.028,1.974 -0.168,3.948 -0.421,5.922c-0.001,0.004 -0.001,0.008 -0.002,0.011c-0.344,2.471 -2.458,4.31 -4.952,4.31c-4.572,-0 -12.681,-0 -17.249,-0.014c-2.487,-0 -4.593,-1.833 -4.937,-4.296c-0.001,-0.003 -0.001,-0.006 -0.002,-0.009c-0.26,-1.986 -0.403,-3.975 -0.43,-5.967Z" transform="translate(48.005 4)"></path><path fill="#02bfe8" d="M269,344.667l-0,-4.998c-0,-0.663 -0.316,-1.299 -0.879,-1.768c-0.562,-0.469 -1.325,-0.733 -2.121,-0.733c-4.519,0 -15.476,0 -19.995,0c-0.795,0 -1.558,0.264 -2.121,0.733c-0.563,0.469 -0.879,1.105 -0.879,1.768l0,4.998c0,0.46 0.448,0.833 1,0.833l23.995,0c0.552,0 1,-0.373 1,-0.833Zm-2,-4.998l-0,4.164c-0,0 -21.995,0 -21.995,0c0,0 0,-4.164 0,-4.164c0,-0.221 0.106,-0.433 0.293,-0.59c0.188,-0.156 0.442,-0.244 0.707,-0.244l19.995,0c0.265,0 0.52,0.088 0.707,0.244c0.188,0.157 0.293,0.369 0.293,0.59Z" transform="matrix(1 0 0 1.19981 0 -67.536)"></path><path fill="#91ebfe" d="M244.304,343.266c-0,-0.125 -0,-0.25 -0,-0.374c-0,-0.276 -0.224,-0.5 -0.5,-0.5c-0.276,-0 -0.5,0.224 -0.5,0.5c-0,0.124 -0,0.249 -0,0.374c-0,0.276 0.224,0.5 0.5,0.5c0.276,-0 0.5,-0.224 0.5,-0.5Zm-0,-2.004l-0,-1.22c-0,-0.478 0.189,-0.936 0.527,-1.274c0.338,-0.338 0.796,-0.527 1.274,-0.527c0.276,-0 0.5,-0.224 0.5,-0.5c-0,-0.276 -0.224,-0.5 -0.5,-0.5c-0.743,-0 -1.456,0.295 -1.981,0.82c-0.525,0.525 -0.82,1.238 -0.82,1.981l-0,1.22c-0,0.276 0.224,0.5 0.5,0.5c0.276,0 0.5,-0.224 0.5,-0.5Z"></path><g transform="translate(96 2)"><path fill="#e51158" d="M153,349.327c0.825,1.02 2.087,1.673 3.5,1.673c1.413,0 2.675,-0.653 3.5,-1.673c0.825,1.02 2.087,1.673 3.5,1.673c1.413,0 2.675,-0.653 3.5,-1.673c0.825,1.02 2.087,1.673 3.5,1.673c2.484,0 4.5,-2.016 4.5,-4.5c-0,0 -0,-1.5 -0,-1.5c0,-0.315 -0.148,-0.611 -0.4,-0.8l-4,-3c-0.173,-0.13 -0.384,-0.2 -0.6,-0.2l-20,0c-0.216,0 -0.427,0.07 -0.6,0.2l-4,3c-0.252,0.189 -0.4,0.485 -0.4,0.8l-0,1.5c-0,2.484 2.016,4.5 4.5,4.5c1.413,0 2.675,-0.653 3.5,-1.673Z"></path><path fill="#f4417d" d="M146.845,345.187l0.18,-0.143c0.223,-0.164 0.27,-0.477 0.106,-0.699c-0.163,-0.222 -0.476,-0.27 -0.699,-0.106l-0.18,0.143c-0.222,0.163 -0.269,0.476 -0.106,0.699c0.164,0.222 0.477,0.269 0.699,0.106Zm1.415,-1.062l2.092,-1.568c0.221,-0.166 0.266,-0.48 0.1,-0.7c-0.165,-0.221 -0.479,-0.266 -0.7,-0.1l-2.092,1.568c-0.22,0.166 -0.265,0.48 -0.1,0.7c0.166,0.221 0.48,0.266 0.7,0.1Z"></path><path fill="#d21957" d="M174.911,344.588c-0.415,2.056 -2.233,3.607 -4.411,3.607c-1.413,-0 -2.675,-0.653 -3.5,-1.673c-0.825,1.02 -2.087,1.673 -3.5,1.673c-1.413,-0 -2.675,-0.653 -3.5,-1.673c-0.825,1.02 -2.087,1.673 -3.5,1.673c-1.413,-0 -2.675,-0.653 -3.5,-1.673c-0.825,1.02 -2.087,1.673 -3.5,1.673c-2.178,-0 -3.996,-1.551 -4.411,-3.607c-0.058,0.128 -0.089,0.268 -0.089,0.412l-0,1.5c-0,2.484 2.016,4.5 4.5,4.5c1.413,0 2.675,-0.653 3.5,-1.673c0.825,1.02 2.087,1.673 3.5,1.673c1.413,0 2.675,-0.653 3.5,-1.673c0.825,1.02 2.087,1.673 3.5,1.673c1.413,0 2.675,-0.653 3.5,-1.673c0.825,1.02 2.087,1.673 3.5,1.673c2.484,0 4.5,-2.016 4.5,-4.5c-0,0 -0,-1.5 -0,-1.5c0,-0.144 -0.031,-0.284 -0.089,-0.412Z"></path><path fill="#b9003e" d="M175,344.998l-0,0.058c-0,2.483 -2.016,4.5 -4.5,4.5c-1.413,-0 -2.675,-0.653 -3.5,-1.673c-0.825,1.02 -2.087,1.673 -3.5,1.673c-1.413,-0 -2.675,-0.653 -3.5,-1.673c-0.825,1.02 -2.087,1.673 -3.5,1.673c-1.413,-0 -2.675,-0.653 -3.5,-1.673c-0.825,1.02 -2.087,1.673 -3.5,1.673c-2.484,-0 -4.5,-2.017 -4.5,-4.5l-0,1.444c-0,2.484 2.016,4.5 4.5,4.5c1.413,0 2.675,-0.653 3.5,-1.673c0.825,1.02 2.087,1.673 3.5,1.673c1.413,0 2.675,-0.653 3.5,-1.673c0.825,1.02 2.087,1.673 3.5,1.673c1.413,0 2.675,-0.653 3.5,-1.673c0.825,1.02 2.087,1.673 3.5,1.673c2.484,0 4.5,-2.016 4.5,-4.5c-0,0 -0,-1.5 -0,-1.5l-0,-0.002Z"></path><path fill="#ffbf00" d="M160.001,349.327l-0,-8.327l-4.961,0l-2.04,4l-0,4.327l0.019,0.024c0.826,1.007 2.079,1.649 3.481,1.649c1.413,0 2.675,-0.653 3.5,-1.673l0.001,0.001l-0,-0.001Z"></path><path fill="#f0b505" d="M160.001,349.327l-0,-2.805l-0.001,-0c-0.825,1.02 -2.087,1.673 -3.5,1.673c-1.402,-0 -2.655,-0.643 -3.481,-1.649l-0.019,-0.024l-0,2.805l0.019,0.024c0.826,1.007 2.079,1.649 3.481,1.649c1.413,0 2.675,-0.653 3.5,-1.673l0.001,0Z"></path><path fill="#dba400" d="M160.001,349.327l-0,-1.444l-0.001,-0c-0.825,1.02 -2.087,1.673 -3.5,1.673c-1.402,-0 -2.655,-0.643 -3.481,-1.649l-0.019,-0.024l-0,1.444l0.019,0.024c0.826,1.007 2.079,1.649 3.481,1.649c1.413,0 2.675,-0.653 3.5,-1.673l0.001,0Z"></path><path fill="#ffbf00" d="M170,341c0.216,0 0.427,0.07 0.6,0.2l4,3c0.252,0.189 0.4,0.485 0.4,0.8c-0,0 -0,1.5 -0,1.5c-0,2.484 -2.016,4.5 -4.5,4.5c-1.412,0 -2.674,-0.652 -3.499,-1.672l0.001,-0.001l-0,-4.327l-2.04,-4l5.038,0Z"></path><path fill="#ffe084" d="M146.845,345.187l0.18,-0.143c0.223,-0.164 0.27,-0.477 0.106,-0.699c-0.163,-0.222 -0.476,-0.27 -0.699,-0.106l-0.18,0.143c-0.222,0.163 -0.269,0.476 -0.106,0.699c0.164,0.222 0.477,0.269 0.699,0.106Zm1.415,-1.062l2.092,-1.568c0.221,-0.166 0.266,-0.48 0.1,-0.7c-0.165,-0.221 -0.479,-0.266 -0.7,-0.1l-2.092,1.568c-0.22,0.166 -0.265,0.48 -0.1,0.7c0.166,0.221 0.48,0.266 0.7,0.1Z" transform="matrix(-1 0 0 1 320.348 0)"></path><path fill="#f0b505" d="M174.911,344.588c0.058,0.128 0.089,0.268 0.089,0.412c-0,0 -0,1.5 -0,1.5c-0,2.484 -2.016,4.5 -4.5,4.5c-1.412,0 -2.674,-0.652 -3.499,-1.672l0.001,-0.001l-0,-2.803c0.825,1.019 2.086,1.671 3.498,1.671c2.178,-0 3.996,-1.551 4.411,-3.607Z"></path><path fill="#dba400" d="M175,344.998l-0,0.002c-0,0 -0,1.5 -0,1.5c-0,2.484 -2.016,4.5 -4.5,4.5c-1.412,0 -2.674,-0.652 -3.499,-1.672l0.001,-0.001l-0,-1.442c0.825,1.019 2.086,1.671 3.498,1.671c2.484,-0 4.5,-2.017 4.5,-4.5l-0,-0.058Z"></path></g><ellipse cx="264.002" cy="341" fill="#ffbf00" rx="1.002" ry="1" transform="translate(1)"></ellipse><ellipse cx="264.002" cy="341" fill="#e51158" rx="1.002" ry="1" transform="translate(-2)"></ellipse><ellipse cx="264.002" cy="341" fill="#52ce5c" rx="1.002" ry="1" transform="translate(-5)"></ellipse></g></svg>